<svg width="257" height="257" xmlns="http://www.w3.org/2000/svg">

 <g>
  <title>background</title>
  <rect fill="none" id="canvas_background" height="299" width="299" y="-1" x="-1"/>
 </g>
 <g>
  <title>Layer 1</title>
  <g id="svg_1">
   <g id="svg_2">
    <path id="svg_3" fill="#FFFFFF" d="m174.444,86.107c9.143,0 16.556,-7.412 16.556,-16.556s-7.412,-16.556 -16.556,-16.556c-0.233,0 -0.459,0.025 -0.689,0.035c0.446,-1.863 0.689,-3.805 0.689,-5.805c0,-13.715 -11.118,-24.833 -24.833,-24.833c-8.456,0 -15.919,4.23 -20.404,10.685c-2.92,-2.582 -6.747,-4.163 -10.951,-4.163c-3.669,0 -7.048,1.208 -9.793,3.228c-4.538,-5.926 -11.683,-9.751 -19.724,-9.751c-10.476,0 -19.43,6.491 -23.079,15.667c-2.156,-1.028 -4.559,-1.62 -7.106,-1.62c-9.142,0.002 -16.554,7.414 -16.554,16.558s7.412,16.556 16.556,16.556l115.888,16.555z"/>
   </g>
   <g id="svg_4">
    <path id="svg_5" fill="#D0D5D9" d="m174.444,52.996c-0.233,0 -0.459,0.025 -0.689,0.035c0.446,-1.863 0.689,-3.805 0.689,-5.804c0,-13.715 -11.118,-24.833 -24.833,-24.833c-8.455,0 -15.919,4.23 -20.404,10.685c-2.92,-2.583 -6.747,-4.163 -10.951,-4.163c-0.882,0 -1.745,0.073 -2.589,0.208l0,48.586l58.777,8.397c9.143,0 16.556,-7.412 16.556,-16.556s-7.412,-16.555 -16.556,-16.555z"/>
   </g>
   <g id="svg_6">
    <path id="svg_7" fill="#F0DEB4" d="m205.282,102.5l-32.032,0l0,-33l-115.5,0l0,148.792c0,8.952 7.257,16.208 16.208,16.208l83.083,0c8.952,0 16.208,-7.257 16.208,-16.208l0,-33.292l32.032,0c5.091,0 9.218,-4.127 9.218,-9.218l0,-64.064c0.001,-5.091 -4.126,-9.218 -9.217,-9.218zm-2.429,61.532c0,3.71 -3.008,6.718 -6.718,6.718l-19.488,0l0,-54l19.488,0c3.71,0 6.718,3.008 6.718,6.718l0,40.564z"/>
   </g>
   <g id="svg_8">
    <path id="svg_9" fill="#D8C49C" d="m205.282,102.5l-32.032,0l0,-33l-57.583,0l0,165l41.375,0c8.952,0 16.208,-7.257 16.208,-16.208l0,-33.292l32.032,0c5.091,0 9.218,-4.127 9.218,-9.218l0,-64.064c0,-5.091 -4.127,-9.218 -9.218,-9.218zm-2.429,61.532c0,3.71 -3.008,6.718 -6.718,6.718l-19.488,0l0,-54l19.488,0c3.71,0 6.718,3.008 6.718,6.718l0,40.564z"/>
   </g>
   <g id="svg_10">
    <path id="svg_11" fill="#FFA800" d="m78.814,224.857l73.372,0c7.905,0 14.314,-6.409 14.314,-14.314l0,-92.4l-102,0l0,92.4c0,7.906 6.409,14.314 14.314,14.314z"/>
   </g>
   <g id="svg_12">
    <path id="svg_13" fill="#CE8400" d="m115.667,118.143l0,106.714l36.519,0c7.905,0 14.314,-6.409 14.314,-14.314l0,-92.4l-50.833,0z"/>
   </g>
  </g>
  <g id="svg_14"/>
  <g id="svg_15"/>
  <g id="svg_16"/>
  <g id="svg_17"/>
  <g id="svg_18"/>
  <g id="svg_19"/>
  <g id="svg_20"/>
  <g id="svg_21"/>
  <g id="svg_22"/>
  <g id="svg_23"/>
  <g id="svg_24"/>
  <g id="svg_25"/>
  <g id="svg_26"/>
  <g id="svg_27"/>
  <g id="svg_28"/>
 </g>
</svg>