<svg width="530" height="530" xmlns="http://www.w3.org/2000/svg">

 <g>
  <title>background</title>
  <rect fill="none" id="canvas_background" height="513.999" width="513.999" y="-1" x="-1"/>
 </g>
 <g>
  <title>Layer 1</title>
  <path id="svg_1" fill="#F6E27D" d="m204.18096,194.18198c-12.853,0 -23.273,-10.42 -23.273,-23.273c0,-13.082 -5.046,-18.679 -16.457,-30.09c-12.701,-12.698 -30.093,-30.089 -30.089,-63.003c-0.005,-32.908 17.391,-50.302 30.092,-63.001c9.089,-9.086 23.825,-9.089 32.914,0.002c9.087,9.089 9.087,23.822 -0.002,32.911c-11.413,11.413 -16.459,17.009 -16.457,30.089c-0.002,13.082 5.042,18.679 16.452,30.087c12.701,12.699 30.093,30.092 30.093,63.006c0,12.852 -10.42,23.272 -23.273,23.272z"/>
  <path id="svg_2" fill="#F2D23D" d="m312.78796,194.18198c-12.853,0 -23.273,-10.42 -23.273,-23.273c0,-13.082 -5.046,-18.679 -16.457,-30.09c-12.701,-12.698 -30.092,-30.089 -30.089,-63.003c-0.005,-32.908 17.391,-50.302 30.092,-63.001c9.087,-9.086 23.825,-9.089 32.914,0.002c9.087,9.089 9.087,23.822 -0.002,32.911c-11.413,11.413 -16.459,17.009 -16.457,30.089c-0.002,13.082 5.042,18.679 16.452,30.087c12.701,12.699 30.093,30.092 30.093,63.006c0,12.852 -10.42,23.272 -23.273,23.272z"/>
  <path id="svg_3" fill="#d3d3d3" d="m506.72796,326.05898c0,-47.052 -38.281,-85.331 -85.334,-85.331l-31.031,0l-310.304,0c-12.853,0 -23.273,10.418 -23.273,23.273l0,77.573c0,98.385 80.042,178.425 178.425,178.425c73.618,0 136.964,-44.819 164.19,-108.604l21.993,0c0.022,0 0.039,-0.003 0.06,-0.003c47.026,-0.032 85.274,-38.299 85.274,-85.333zm-85.333,38.788c-0.011,0 -0.02,0.003 -0.031,0.003l-9.246,0c0.998,-7.62 1.519,-15.388 1.519,-23.276l0,-54.3l7.758,0c21.388,0 38.788,17.399 38.788,38.785c0,21.389 -17.401,38.788 -38.788,38.788z"/>
  <path id="svg_4" fill="#a3a3a3" d="m421.39496,240.72798l-31.031,0l-155.152,0l0,279.271c73.618,0 136.964,-44.819 164.19,-108.604l21.993,0c0.022,0 0.039,-0.003 0.06,-0.003c47.025,-0.034 85.273,-38.301 85.273,-85.334c0,-47.051 -38.28,-85.33 -85.333,-85.33zm0,124.119c-0.011,0 -0.02,0.003 -0.031,0.003l-9.246,0c0.998,-7.62 1.519,-15.388 1.519,-23.276l0,-54.3l7.758,0c21.388,0 38.788,17.399 38.788,38.785c0,21.389 -17.401,38.788 -38.788,38.788z"/>
  <path id="svg_5" fill="#8c8c8c" d="m405.87896,473.45398l-341.335,0c-12.853,0 -23.273,10.422 -23.273,23.273c0,12.854 10.42,23.273 23.273,23.273l341.335,0c12.853,0 23.273,-10.418 23.273,-23.273c0,-12.852 -10.42,-23.273 -23.273,-23.273z"/>
  <path id="svg_6" fill="#757575" d="m405.87896,471.45399l-170.667,0l0,46.546l170.668,0c12.853,0 23.273,-10.418 23.273,-23.273c-0.001,-12.852 -10.421,-23.273 -23.274,-23.273z"/>
  <g id="svg_7"/>
  <g id="svg_8"/>
  <g id="svg_9"/>
  <g id="svg_10"/>
  <g id="svg_11"/>
  <g id="svg_12"/>
  <g id="svg_13"/>
  <g id="svg_14"/>
  <g id="svg_15"/>
  <g id="svg_16"/>
  <g id="svg_17"/>
  <g id="svg_18"/>
  <g id="svg_19"/>
  <g id="svg_20"/>
  <g id="svg_21"/>
 </g>
</svg>