<svg width="146" height="146" xmlns="http://www.w3.org/2000/svg">
 <g>
  <title>background</title>
  <rect x="-1" y="-1" width="148" height="148" id="canvas_background" fill="none"/>
 </g>

 <g>
  <title>Layer 1</title>
  <path transform="rotate(-90 126.64984130859375,24.286869049072255) " stroke="null" d="m136.75202,15.0927c-0.15457,0.03091 -0.30982,0.37199 -0.30982,0.55781c-0.03091,1.24063 -0.06183,4.52769 -0.06183,6.76029c0,0.06217 0.09274,0.18616 0.18583,0.18616c0.46507,0.03091 1.58137,0.06183 2.54275,0.06183c1.33337,0 2.1086,-0.18583 2.54309,-0.37165c1.11596,-0.55848 1.6432,-1.76786 1.6432,-3.10157c0,-3.00749 -2.1086,-4.15503 -5.24075,-4.15503c-0.21708,-0.03091 -0.83672,-0.03091 -1.30246,0.06217l-0.00001,-0.00001zm8.00092,13.86132c0,-3.06999 -2.26385,-4.77569 -6.35705,-4.77569c-0.18616,0 -1.48862,-0.03091 -1.79878,0.03091c-0.09308,0.03125 -0.21674,0.09342 -0.21674,0.1865c0,2.20134 -0.03125,5.70582 0.06183,7.07011c0.06183,0.58906 0.49632,1.42646 1.02355,1.67445c0.55781,0.31016 1.82936,0.37199 2.69766,0.37199c2.44967,0 4.58952,-1.36429 4.58952,-4.55827l0.00001,0zm-14.32638,-15.56668c0.30982,0 1.23996,0.09274 3.6278,0.09274c2.26385,0 4.06229,-0.06183 6.26397,-0.06183c2.69766,0 6.41888,0.96105 6.41888,4.99243c0,1.9846 -1.39554,3.56631 -3.2249,4.34153c-0.09274,0.03091 -0.09274,0.09274 0,0.12366c2.60458,0.65157 4.89968,2.26385 4.89968,5.30258c0,2.97724 -1.86061,4.86877 -4.55861,6.04723c-1.64353,0.71306 -3.68997,0.96105 -5.76765,0.96105c-1.5817,0 -5.82982,-0.18583 -8.18641,-0.12366c-0.24799,-0.09342 0.21708,-1.20971 0.43382,-1.39554c0.55848,-0.03125 0.9923,-0.06217 1.5817,-0.24833c0.83739,-0.21674 0.93014,-0.46507 1.05413,-1.73628c0.06217,-1.08538 0.06217,-4.93093 0.06217,-7.65951c0,-3.75213 0.03125,-6.29489 0,-7.53518c-0.03091,-0.96105 -0.37199,-1.27154 -1.05413,-1.45771c-0.52757,-0.09274 -1.39554,-0.21708 -2.10894,-0.30982c-0.15525,-0.15525 0.37199,-1.20971 0.55848,-1.33337l0.00001,0.00001zm-17.89303,19.28789c0.74465,0.58873 2.20202,0.83672 3.50448,0.83672c1.67445,0 3.34889,-0.30949 4.96151,-1.76753c1.64353,-1.48795 2.79074,-3.78271 2.79074,-7.44176c0,-3.50448 -1.33337,-6.35739 -4.06229,-8.0315c-1.55045,-0.96172 -3.53506,-1.36429 -5.82982,-1.36429c-0.68214,0 -1.33337,0.03091 -1.73628,0.21674c-0.09342,0.06217 -0.31016,0.34107 -0.31016,0.49598c-0.06217,0.62031 -0.06217,5.39566 -0.06217,8.18674c0,2.88383 0,6.9152 0.06217,7.38027c0,0.4654 0.21674,1.17846 0.68214,1.48862l-0.00034,0l0.00002,0.00001zm-7.0392,-19.28823c0.5894,0 2.85291,0.09308 3.93829,0.09308c1.95403,0 3.34923,-0.09274 7.0392,-0.09274c3.1009,0 5.70582,0.83706 7.56643,2.41842c2.26351,1.95369 3.44231,4.65169 3.44231,7.93842c0,4.6826 -2.13985,7.3806 -4.2797,8.93106c-2.13918,1.58137 -4.93026,2.5115 -8.89947,2.5115c-2.1086,0 -5.73674,-0.06183 -8.74489,-0.09308l-0.03091,0c-0.15491,-0.27891 0.24799,-1.36429 0.49598,-1.3952c0.80648,-0.09308 1.02355,-0.12433 1.42679,-0.27891c0.65089,-0.24833 0.77523,-0.5894 0.86831,-1.73661c0.09274,-2.13985 0.06183,-4.71352 0.06183,-7.6286c0,-2.07735 0.03091,-6.13997 -0.03125,-7.44243c-0.09274,-1.08505 -0.55781,-1.36429 -1.48829,-1.55045c-0.46507,-0.09274 -1.08538,-0.21708 -1.95335,-0.30982c-0.12433,-0.21741 0.43382,-1.17846 0.58873,-1.36429l0,-0.00034l-0.00001,-0.00001z" fill="#A6A385" id="svg_2"/>
  <g stroke="null" id="svg_10">
   <path stroke="null" d="m76.33635,143.7834l-3.9019,-1.33364s0.47652,-19.89213 -6.66302,-21.31962c-4.75797,-5.52123 0.76326,-234.14764 17.89528,-0.76223c0,0 -5.90183,2.94989 -6.94873,7.99563c-1.14282,4.94982 -0.38163,15.41985 -0.38163,15.41985l0,0.00001z" fill="#A6A385" id="svg_5"/>
   <path stroke="null" d="m78.43118,124.55655s34.17122,-22.46347 26.17456,-69.19853c-7.70889,-33.97834 -25.88885,-45.11468 -27.88776,-49.3982c-2.18869,-3.04581 -4.28353,-8.3752 -4.28353,-8.3752l1.42853,94.51391c0,0.09592 -2.95092,28.93568 4.56922,32.45905" fill="#499D4A" id="svg_7"/>
   <path stroke="null" d="m70.43658,125.79324s-32.07742,-21.89206 -30.1734,-60.43964c1.8081,-38.5486 24.46135,-57.48975 28.83976,-60.91616c2.85603,-3.04581 2.95092,-4.18864 3.14173,-7.23444c1.99891,4.28353 1.61831,64.05788 1.90299,71.10049c0.85609,27.12657 -1.52239,52.35118 -3.71107,57.48975z" fill="#58AA50" id="svg_9"/>
  </g>
  <path transform="rotate(-90 133.9250183105469,97.00292968750001) " d="m148.06491,98.63341c-0.74804,-0.08982 -1.28662,-0.20914 -1.94485,-0.50842c-0.08982,-0.05999 -0.23962,-0.35894 -0.23962,-0.47892c-0.05966,-1.04733 -0.05966,-4.03951 -0.05966,-6.04402c0,-1.61606 -0.26913,-3.02233 -0.95751,-4.00968c-0.80803,-1.13747 -1.97468,-1.79537 -3.4711,-1.79537c-1.31646,0 -3.082,0.89752 -4.54826,2.15432c-0.02983,0.02983 -0.26913,0.23962 -0.2393,-0.08982c0,-0.32911 0.05999,-0.98734 0.08982,-1.43643c0.03016,-0.41893 -0.20947,-0.62807 -0.20947,-0.62807c-0.95751,0.47859 -3.65041,1.10699 -4.63807,1.19648c-0.71789,0.15013 -0.89752,0.83819 -0.14916,1.07748l0.02983,0c0.80738,0.2393 1.34629,0.50875 1.76489,0.7782c0.29928,0.2393 0.26945,0.56841 0.26945,0.83786c0.02983,2.24381 0.02983,5.68508 -0.05966,7.57027c-0.02983,0.74804 -0.2393,1.01717 -0.7782,1.13682l0.05999,-0.02983c-0.41893,0.08982 -0.74804,0.17931 -1.25679,0.2393c-0.17963,0.17963 -0.17963,1.13714 0,1.34661c0.32911,0 2.0645,-0.08982 3.50125,-0.08982c1.97468,0 2.99218,0.08982 3.5006,0.08982c0.20947,-0.2393 0.26945,-1.13714 0.1498,-1.34661c-0.56873,-0.02983 -0.98767,-0.08949 -1.37644,-0.20947c-0.53858,-0.11997 -0.68838,-0.38878 -0.71854,-1.01717c-0.05934,-1.58623 -0.05934,-4.93736 -0.05934,-7.21132c0,-0.6284 0.17931,-0.92768 0.35862,-1.10731c0.68838,-0.59824 1.7957,-1.01717 2.78304,-1.01717c0.95751,0 1.58558,0.29928 2.0645,0.68838c0.65823,0.53826 0.86769,1.31646 0.95751,1.88487c0.14948,1.28662 0.08982,3.83004 0.08982,6.04435c0,1.19681 -0.08982,1.49609 -0.53826,1.64557c-0.20979,0.08982 -0.74837,0.20979 -1.37677,0.26913c-0.20947,0.20979 -0.14948,1.13747 0,1.34693c0.86769,0 1.88519,-0.08982 3.38128,-0.08982c1.85503,0 3.05217,0.08982 3.53108,0.08982c0.14916,-0.17963 0.20914,-1.04733 0.08949,-1.28695l0.00003,-0.00001zm8.28848,-11.42981c-1.58558,0 -2.57325,1.22664 -2.57325,3.14133c0,1.94518 0.86769,4.18931 3.32129,4.18931c0.41893,0 1.19713,-0.17963 1.55575,-0.59857c0.56873,-0.53826 0.95783,-1.61574 0.95783,-2.75288c0,-2.48343 -1.22696,-3.97952 -3.26163,-3.97952l0,0.00032l0.00001,0.00001zm-0.20947,13.22519c-0.59824,0 -1.0175,0.17963 -1.28662,0.32944c-1.25679,0.80738 -1.8252,1.58558 -1.8252,2.51359c0,0.86737 0.32911,1.55543 1.04733,2.15399c0.86769,0.74804 2.0645,1.10731 3.59042,1.10731c3.05217,0 4.39878,-1.64589 4.39878,-3.26131c0,-1.13747 -0.56873,-1.88551 -1.73539,-2.30412c-0.83786,-0.35927 -2.36378,-0.5389 -4.18931,-0.5389l-0.00001,0zm0.20947,7.78006c-1.8252,0 -3.14198,-0.3891 -4.2788,-1.25679c-1.10731,-0.83786 -1.58591,-2.09466 -1.58591,-2.96235c0,-0.2393 0.05999,-0.89785 0.59857,-1.49609c0.32879,-0.35927 1.04733,-1.04733 2.75288,-2.2143c0.05966,-0.02983 0.08949,-0.05966 0.08949,-0.11997c0,-0.05966 -0.05999,-0.11965 -0.11965,-0.14916c-1.40627,-0.53858 -1.8252,-1.4066 -1.94518,-1.88519l0,-0.05999c-0.02951,-0.17963 -0.08949,-0.35894 0.17996,-0.53858c0.20947,-0.14948 0.50875,-0.32911 0.83754,-0.53826c0.50875,-0.29961 1.04733,-0.62872 1.37644,-0.89817c0.05999,-0.05966 0.05999,-0.11932 0.05999,-0.17931c0,-0.05999 -0.05999,-0.11997 -0.11997,-0.14948c-2.09401,-0.68838 -3.14133,-2.24446 -3.14133,-4.57841c0,-1.52592 0.68806,-2.90236 1.9147,-3.77006c0.83786,-0.65823 2.93252,-1.46626 4.30896,-1.46626l0.08982,0c1.40627,0.02983 2.18415,0.32911 3.29114,0.71821c0.59857,0.20947 1.1673,0.29896 1.9455,0.29896c1.16665,0 1.6754,-0.35894 2.09401,-0.77755c0.03016,0.05966 0.09014,0.20947 0.11997,0.59824c0.02983,0.3891 -0.08982,0.95751 -0.3891,1.37644c-0.2393,0.32911 -0.77788,0.56873 -1.31646,0.56873l-0.1498,0c-0.53858,-0.05999 -0.7782,-0.11997 -0.7782,-0.11997l-0.11932,0.05999c-0.02983,0.05999 0,0.11965 0.02983,0.20947l0.03016,0.05999c0.05966,0.26913 0.17931,1.07683 0.17931,1.28662c0,2.4536 -0.98734,3.53043 -2.03467,4.33847c-1.0175,0.74804 -2.18415,1.22664 -3.50093,1.34661c-0.02983,0 -0.14916,0 -0.41893,0.02983c-0.14948,0 -0.35894,0.03016 -0.3891,0.03016l-0.02983,0c-0.2393,0.05966 -0.83754,0.35894 -0.83754,0.86737c0,0.44876 0.26913,0.98767 1.55575,1.07748c0.26913,0.02983 0.53826,0.02983 0.83786,0.05999c1.70556,0.11932 3.83004,0.26913 4.81738,0.59824c1.37644,0.50842 2.24413,1.73539 2.24413,3.20165c0,2.21463 -1.58558,4.27913 -4.21882,5.56543c-1.28662,0.56873 -2.57357,0.86802 -3.97985,0.86802l0,-0.00001zm17.05555,-20.85576c-0.62807,0 -1.19681,0.14916 -1.61574,0.44844c-1.16665,0.71821 -1.76522,2.15464 -1.76522,4.24897c0,3.92018 1.97468,6.67307 4.78755,6.67307c0.83786,0 1.49609,-0.23962 2.0645,-0.71821c0.86769,-0.71854 1.31678,-2.15464 1.31678,-4.15948c0,-3.8897 -1.94518,-6.49311 -4.78755,-6.49311l-0.00032,0.00032zm0.5389,12.80658c-5.08683,0 -6.91204,-3.74022 -6.91204,-7.24115c0,-2.4536 0.98734,-4.33879 2.96202,-5.6854c1.4066,-0.86769 3.08232,-1.34629 4.57841,-1.34629c3.8897,0 6.61276,2.78271 6.61276,6.79239c0,2.72273 -1.07716,4.87705 -3.14198,6.19382c-0.98734,0.65823 -2.6929,1.28662 -4.09949,1.28662l0.00032,0l0,0.00001zm-53.32163,-12.8069c-0.6284,0 -1.19681,0.14948 -1.61606,0.44876c-1.16665,0.71821 -1.76522,2.15464 -1.76522,4.24897c0,3.92018 1.97468,6.67307 4.78755,6.67307c0.83786,0 1.49609,-0.23962 2.06482,-0.71821c0.86737,-0.71854 1.31646,-2.15464 1.31646,-4.15948c0,-3.8897 -1.91502,-6.49311 -4.78755,-6.49311zm0.53858,12.8069c-5.08683,0 -6.91204,-3.74022 -6.91204,-7.24115c0,-2.4536 0.98734,-4.33879 2.96202,-5.6854c1.4066,-0.86769 3.08232,-1.34629 4.57841,-1.34629c3.89003,0 6.61276,2.78271 6.61276,6.79239c0,2.72273 -1.07716,4.87705 -3.14198,6.19382c-0.95751,0.65823 -2.66307,1.28662 -4.09917,1.28662l0,0.00001zm-34.20125,-0.29928c-0.05999,-0.08949 -0.11997,-0.35894 -0.08982,-0.68806c0,-0.23962 0.05999,-0.3891 0.08982,-0.44876c0.6284,-0.09014 0.95751,-0.17996 1.31646,-0.26945c0.59857,-0.1498 0.83786,-0.47859 0.86769,-1.22664c0.09014,-1.79537 0.09014,-5.20681 0.05999,-7.57059l0,-0.05999c0,-0.26913 0,-0.59857 -0.32911,-0.83786c-0.47892,-0.29896 -1.04733,-0.56809 -1.79537,-0.7782c-0.26913,-0.08917 -0.44876,-0.23897 -0.41893,-0.41828c0,-0.17963 0.17963,-0.3891 0.56873,-0.44909c0.98734,-0.08982 3.56027,-0.71789 4.57776,-1.16698c0.05999,0.05966 0.1498,0.23962 0.1498,0.47892l-0.02983,0.32879c-0.03016,0.32944 -0.05999,0.71854 -0.05999,1.10731c0,0.11965 0.11997,0.20947 0.2393,0.20947c0.05999,0 0.11997,-0.02983 0.17963,-0.05999c1.91502,-1.49609 3.65041,-2.03467 4.54793,-2.03467c1.46658,0 2.60373,0.68838 3.47142,2.12449c0.05966,0.09014 0.11965,0.11997 0.20947,0.11997c0.05966,0 0.14916,-0.02983 0.17931,-0.08982c1.76554,-1.34661 3.53108,-2.15464 4.69773,-2.15464c2.78271,0 4.42861,2.06482 4.42861,5.56575c0,0.98734 0,2.27397 -0.02983,3.44127c0,1.047 -0.02983,2.00451 -0.02983,2.6929c0,0.14916 0.20914,0.62807 0.53826,0.71789c0.41893,0.20947 0.98767,0.29928 1.73571,0.41893l0.02983,0c0.05999,0.20947 -0.05966,0.98734 -0.17931,1.13714c-0.17963,0 -0.44909,0 -0.74804,-0.02983a44.16545,44.16545 0 0 0 -2.27429,-0.05999c-1.85503,0 -2.81255,0.02983 -3.74055,0.08982c-0.05934,-0.2393 -0.08949,-0.95751 0,-1.13714c0.5389,-0.08949 0.80803,-0.17963 1.13747,-0.26913c0.59857,-0.17963 0.74804,-0.44909 0.7782,-1.22696c0,-0.56841 0.11932,-5.41595 -0.06031,-6.58292c-0.17931,-1.19681 -1.07716,-2.60308 -3.05217,-2.60308c-0.74804,0 -1.9147,0.29928 -3.05184,1.16665c-0.05966,0.05999 -0.11997,0.20947 -0.11997,0.29928l0,0.03016c0.11997,0.62807 0.11997,1.34661 0.11997,2.4536l0,1.94485c0,1.34661 -0.03016,2.6034 0,3.56059c0,0.65855 0.3891,0.80803 0.71821,0.928c0.17963,0.02951 0.29896,0.05966 0.44876,0.08949c0.26913,0.05999 0.53858,0.11997 0.95751,0.20947c0.05999,0.11997 0.05999,0.50875 -0.02983,0.83786c-0.03016,0.17963 -0.09014,0.26913 -0.11997,0.29928c-1.01717,-0.02983 -2.0645,-0.05999 -3.59042,-0.05999c-0.44876,0 -1.22696,0.03016 -1.88519,0.03016c-0.5389,0 -1.04733,0.02983 -1.34629,0.02983c-0.03016,-0.05999 -0.09014,-0.26913 -0.09014,-0.59857c0,-0.26913 0.05999,-0.47859 0.11997,-0.53858c0.14948,-0.02983 0.26913,-0.05966 0.41893,-0.05966c0.35862,-0.05999 0.65823,-0.11997 0.95719,-0.17963c0.50907,-0.14948 0.68838,-0.41893 0.71821,-1.07716c0.08982,-1.49609 0.17963,-5.77489 -0.02983,-6.85238c-0.35894,-1.73539 -1.34629,-2.60308 -2.93252,-2.60308c-0.92736,0 -2.09466,0.44876 -3.05184,1.1673c-0.1498,0.11932 -0.26945,0.41828 -0.26945,0.68773l0,1.76554c0,2.15432 0,4.84754 0.02983,6.01451c0.03016,0.35862 0.14948,0.77788 0.83786,0.92736c0.1498,0.02983 0.3891,0.08982 0.68838,0.11997l0.53826,0.08949c0.06031,0.17963 0.03016,0.89785 -0.08949,1.13714c-0.29928,0 -0.65823,-0.02983 -1.07748,-0.02983c-0.62807,-0.03016 -1.4361,-0.05999 -2.33363,-0.05999c-1.04733,0 -1.79537,0.02983 -2.39394,0.05999c-0.41893,-0.05999 -0.74804,-0.05999 -1.10699,-0.05999l0,0.00003z" fill="#7f3f00" id="svg_3" stroke-width="7" stroke="null"/>
 </g>
</svg>