<svg width="352" height="352" xmlns="http://www.w3.org/2000/svg">

 <g>
  <title>background</title>
  <rect fill="none" id="canvas_background" height="514" width="514" y="-1" x="-1"/>
 </g>
 <g>
  <title>Layer 1</title>
  <circle id="svg_3" fill="#FFC61B" r="108.418" cy="176" cx="179.19"/>
  <path id="svg_4" fill="#EAA22F" d="m287.603,176c0,-59.27 -47.566,-107.399 -106.605,-108.373l0,216.745c59.039,-0.973 106.605,-49.102 106.605,-108.372z"/>
  <circle id="svg_5" fill="#FFEDB5" r="72.278" cy="176" cx="179.19"/>
  <path id="svg_6" fill="#FEE187" d="m251.465,176c0,-39.31 -31.387,-71.268 -70.465,-72.233l0,144.467c39.077,-0.966 70.465,-32.924 70.465,-72.234z"/>
  <rect id="svg_7" fill="#FFC61B" height="59.009" width="7.98" y="129.23" x="318.516"/>
  <path id="svg_8" fill="#FF7F4F" d="m322.512,276.776l0,0c6.666,0 12.071,-5.404 12.071,-12.071l0,-79.136c0,-6.666 -5.404,-12.071 -12.071,-12.071l0,0c-6.666,0 -12.071,5.404 -12.071,12.071l0,79.136c0,6.667 5.405,12.071 12.071,12.071z"/>
  <path id="svg_9" fill="#FFFFFF" d="m348.034,116.922l0,-41.656c0,-2.431 -1.82,-4.61 -4.248,-4.736c-2.589,-0.136 -4.73,1.924 -4.73,4.482l0,34.432c0,2.019 -1.638,3.655 -3.656,3.651c-1.629,-0.003 -3.543,-0.007 -5.17,-0.009c-2.014,-0.003 -3.641,-1.638 -3.641,-3.651l0,-34.17c0,-2.431 -1.82,-4.61 -4.248,-4.736c-2.589,-0.136 -4.73,1.924 -4.73,4.482l0,34.423c0,2.014 -1.627,3.648 -3.641,3.651c-1.627,0.002 -3.541,0.005 -5.17,0.009c-2.019,0.003 -3.656,-1.633 -3.656,-3.651l0,-34.178c0,-2.431 -1.82,-4.61 -4.248,-4.736c-2.589,-0.136 -4.73,1.924 -4.73,4.482l0,41.91c0,10.916 8.849,19.765 19.765,19.765l6.165,0c0.002,0 0.003,0 0.005,0s0.003,0 0.005,0l6.165,0c10.915,-0.001 19.763,-8.848 19.763,-19.764z"/>
  <rect id="svg_10" fill="#FFC61B" height="59.13" width="7.995" y="128.368" x="32.279"/>
  <path id="svg_11" fill="#FFFFFF" d="m6.701,113.577c0,-16.331 13.238,-44.353 29.568,-44.353s29.568,28.022 29.568,44.353s-13.238,29.568 -29.568,29.568s-29.568,-13.237 -29.568,-29.568z"/>
  <path id="svg_12" fill="#FF7F4F" d="m36.269,276.205l0,0c6.68,0 12.097,-5.417 12.097,-12.097l0,-79.298c0,-6.68 -5.417,-12.097 -12.097,-12.097l0,0c-6.68,0 -12.097,5.417 -12.097,12.097l0,79.298c0.001,6.681 5.417,12.097 12.097,12.097z"/>
  <g id="svg_13"/>
  <g id="svg_14"/>
  <g id="svg_15"/>
  <g id="svg_16"/>
  <g id="svg_17"/>
  <g id="svg_18"/>
  <g id="svg_19"/>
  <g id="svg_20"/>
  <g id="svg_21"/>
  <g id="svg_22"/>
  <g id="svg_23"/>
  <g id="svg_24"/>
  <g id="svg_25"/>
  <g id="svg_26"/>
  <g id="svg_27"/>
 </g>
</svg>